<svg id="Capa_1" enable-background="new 0 0 511.384 511.384" height="72" viewBox="0 0 511.384 511.384" width="72" xmlns="http://www.w3.org/2000/svg"><g><g><path d="m401.31 153.77c0-80.783-65.487-146.27-146.27-146.27-80.783 0-146.271 65.488-146.271 146.271v331.474h292.541z" fill="#baafb9"/><g><path d="m295.49 386.165 98.57 50.415c18 9.206 29.325 27.72 29.325 47.937v10.363c0 4.973-4.032 9.005-9.005 9.005h-317.377c-4.973 0-9.005-4.032-9.005-9.005v-10.363c0-20.217 11.325-38.731 29.325-47.937l98.57-50.415 20.732-9.356h40.235z" fill="#c8effe"/><path d="m266.917 376.809h-30.292l-20.732 9.356-98.57 50.415c-18 9.207-29.325 27.72-29.325 47.937v10.363c0 4.973 4.031 9.004 9.005 9.004h45.454v-2.667c0-20.217 11.326-38.731 29.325-47.937l95.135-48.658z" fill="#99e6fc"/><path d="m295.49 386.165c0 20.76-16.83 37.59-37.59 37.59h-4.417c-20.76 0-37.59-16.83-37.59-37.59v-57.666h79.597z" fill="#ffdfcf"/></g><g><path d="m365.076 198.201 3.661-8.581v-30.347c0-3.497-2.193-6.615-5.475-7.821-15.877-5.834-31.761-10.36-47.645-13.606-3.16-.65-5.78-2.83-7.02-5.81l-8.27-19.83c-1.8-4.32-7.91-4.4-9.81-.11l-6.42 14.45c-1.67 3.74-5.49 6.04-9.57 5.78-42.181-2.712-84.38 3.651-126.58 19.126-3.289 1.206-5.49 4.323-5.49 7.826v96.589c0 22.97 5.92 44.71 16.4 63.67l20.61 27.88c19.64 20.33 45.86 34.44 75.63 38.8l.84-.12c29.93-4.35 56.28-18.55 75.98-39.03l18.98-25.15c11.38-19.54 17.84-42.2 17.84-66.19v-40.582l-2.596-.746z" fill="#ffdfcf"/><path d="m361.246 240.188c-3.408-10.261-11.711-17.979-22.226-20.653-27.578-6.979-55.668-10.517-83.49-10.517-15.623 0-31.398 1.123-47.184 3.341-12.356 1.736-23.402-7.818-23.402-20.295v-49.395c0-.874.137-1.723.394-2.525-12.469 2.983-24.938 6.739-37.407 11.313-3.283 1.204-5.474 4.323-5.474 7.82v96.589c0 22.97 5.92 44.71 16.4 63.67l20.61 27.88c19.64 20.33 45.86 34.44 75.63 38.8l.84-.12c17.301-2.515 33.414-8.32 47.73-16.728.013-.002.559-.335.559-.335 10.232-6.076 19.525-13.478 27.691-21.967l18.98-25.15c9.279-15.933 15.284-33.941 17.186-53.052-1.384-9.528-3.663-19.093-6.837-28.676z" fill="#ffcebf"/></g><path d="m347.01 244.916c10.17 30.7 10.38 61.06-.06 91.08-1.74 5.03-5.83 8.93-10.93 10.44-53.9 16.04-107.8 16.05-161.7.03-5.15-1.53-9.24-5.48-10.97-10.55-10.35-30.35-10.4-60.7-.15-91.04 1.8-5.34 6.23-9.39 11.69-10.75 53.7-13.41 107.18-13.53 160.45-.05 5.47 1.39 9.89 5.48 11.67 10.84z" fill="#b0e7c9"/><path d="m207.094 345.891c-10.35-36.551-10.4-73.101-.15-109.64 1.051-3.753 3.012-6.982 5.537-9.342-12.515 1.678-25.051 4.086-37.59 7.217-5.46 1.36-9.89 5.41-11.69 10.75-10.25 30.34-10.2 60.69.15 91.04 1.73 5.07 5.82 9.02 10.97 10.55 12.735 3.785 25.489 6.679 38.224 8.674-2.48-2.358-4.407-5.562-5.451-9.249z" fill="#91deb6"/></g><g><path d="m144.218 414.399-27.949 14.295v-274.923c0-26.329 7.41-51.954 21.43-74.104 2.215-3.5 1.174-8.133-2.326-10.348s-8.133-1.175-10.349 2.326c-15.541 24.553-23.755 52.952-23.755 82.126v284.713c-13.068 11.472-20.771 28.083-20.771 46.033v19.367c0 4.143 3.358 7.5 7.5 7.5s7.5-3.357 7.5-7.5v-19.367c0-17.486 9.672-33.297 25.24-41.26l30.31-15.502c3.688-1.887 5.148-6.405 3.262-10.093s-6.406-5.146-10.092-3.263z"/><path d="m408.81 437.374v-50.353c0-4.143-3.357-7.5-7.5-7.5s-7.5 3.357-7.5 7.5v41.006l-90.82-46.451v-3.167c12.008-6.465 23.062-14.739 32.896-24.676.746-.216 1.493-.423 2.239-.645 7.406-2.203 13.343-7.875 15.88-15.172 1.52-4.372 2.819-8.766 3.914-13.179 11.981-20.969 18.322-44.803 18.322-69.015v-102.208c0-3.1-1.907-5.88-4.799-6.997-17.967-6.937-36.242-12.327-54.317-16.021-.718-.147-1.319-.648-1.608-1.343l-8.262-19.828c-1.976-4.74-6.569-7.842-11.705-7.901-5.084-.056-9.801 2.934-11.886 7.626l-6.422 14.451c-.385.862-1.276 1.394-2.236 1.339-44.906-2.892-90.408 4.403-135.248 21.676-2.895 1.115-4.804 3.897-4.804 6.999v102.353c0 23.136 5.821 46.04 16.822 66.323 1.194 5.21 2.67 10.412 4.439 15.602 2.513 7.374 8.468 13.101 15.933 15.321 1.133.337 2.268.656 3.401.979 9.825 9.88 20.862 18.102 32.845 24.531v2.955l-35.53 18.172c-3.688 1.887-5.148 6.405-3.262 10.093 1.327 2.595 3.957 4.087 6.683 4.087 1.149 0 2.316-.266 3.409-.824l30.191-15.441c5.097 19.31 22.709 33.592 43.599 33.592h4.417c20.889 0 38.502-14.282 43.599-33.592l89.146 45.595c15.568 7.962 25.24 23.771 25.24 41.259v19.367c0 4.143 3.357 7.5 7.5 7.5s7.5-3.357 7.5-7.5v-19.367c-.001-18.542-8.219-35.651-22.076-47.146zm-258.856-181.508v-30.705l8.621 11.522c-1.034 1.622-1.886 3.379-2.519 5.252-2.533 7.506-4.458 15.037-5.789 22.581-.202-2.875-.313-5.76-.313-8.65zm210.581 12.97c-1.327-8.909-3.47-17.855-6.44-26.818-.532-1.607-1.23-3.126-2.06-4.553l9.205-12.302v30.56c.001 4.391-.243 8.767-.705 13.113zm-20.678-22.102c.921 2.781 1.754 5.56 2.5 8.336-57.633-3.757-116.277-3.74-174.634.044.757-2.797 1.604-5.592 2.545-8.382.972-2.879 3.428-5.13 6.409-5.875 26.256-6.555 52.584-9.831 78.811-9.831 26.156 0 52.211 3.261 77.974 9.781 2.984.756 5.434 3.027 6.395 5.927zm-175.339 23.619c60.503-4.113 121.349-4.127 181.057-.041 2.083 13.54 2.063 26.974-.061 40.22-59.999 4.802-120.737 4.806-180.737.01-2.186-13.382-2.273-26.805-.259-40.189zm109.524-130.545c7.176.448 13.982-3.64 16.906-10.215l4.388-9.873 6.334 15.201c2.202 5.286 6.856 9.126 12.45 10.27 15.657 3.201 31.484 7.739 47.121 13.509v41.426l-20.484 27.374c-1.161-.497-2.365-.917-3.615-1.234-54.017-13.674-109.229-13.661-164.098.038-.97.242-1.915.543-2.832.895l-20.258-27.074v-41.423c41.238-15.183 82.955-21.546 124.088-18.894zm-105.843 186.038c28.861 2.192 57.872 3.314 86.896 3.314 29.055 0 58.112-1.126 87.005-3.323-.686 2.392-1.436 4.777-2.263 7.153-.957 2.751-3.195 4.89-5.989 5.721-52.23 15.539-105.196 15.546-157.426.023-2.814-.837-5.061-2.999-6.009-5.782-.807-2.366-1.54-4.735-2.214-7.106zm86.898 39.536c15.776 0 31.552-1.33 47.292-3.98-14.263 8.864-30.228 14.723-47.272 17.234-16.654-2.583-32.264-8.381-46.245-17.056 15.387 2.532 30.806 3.802 46.225 3.802zm2.803 50.873h-4.417c-16.592 0-30.09-13.498-30.09-30.09v-.626c9.759 3.805 19.997 6.544 30.616 8.1.36.053 3-.12 3-.12 10.748-1.561 21.115-4.308 30.979-8.169v.815c.002 16.592-13.496 30.09-30.088 30.09z"/><path d="m156.745 55.818c26.231-26.322 61.139-40.818 98.295-40.818 76.518 0 138.77 62.252 138.77 138.771v201.288c0 4.143 3.357 7.5 7.5 7.5s7.5-3.357 7.5-7.5v-201.288c0-84.79-68.981-153.771-153.77-153.771-41.172 0-79.854 16.063-108.92 45.23-2.924 2.934-2.916 7.683.019 10.606 2.933 2.926 7.681 2.917 10.606-.018z"/></g></g></svg>