<svg width="66" height="104" viewBox="0 0 66 104" fill="none" xmlns="http://www.w3.org/2000/svg">
<g opacity="0.5">
<path d="M60.429 31.1203C60.429 14.7715 48.0937 1.51831 32.8772 1.51831C17.6607 1.51831 5.3252 14.7717 5.3252 31.1205V98.204H60.429V31.1203Z" fill="#BAAFB9"/>
<path d="M40.4966 78.1523L59.0635 88.3552C62.454 90.2183 64.5872 93.9652 64.5872 98.0567V100.154C64.5872 101.16 63.8277 101.976 62.891 101.976H3.10905C2.17232 101.976 1.41284 101.16 1.41284 100.154V98.0567C1.41284 93.9652 3.54605 90.2183 6.93657 88.3552L25.5035 78.1523L29.4086 76.2588H36.9874L40.4966 78.1523Z" fill="#C8EFFE"/>
<path d="M35.1145 76.2588H29.4086L25.5035 78.1523L6.93657 88.3552C3.54605 90.2185 1.41284 93.9652 1.41284 98.0567V100.154C1.41284 101.16 2.17213 101.976 3.10905 101.976H11.6709V101.436C11.6709 97.3449 13.8043 93.598 17.1946 91.7349L35.1145 81.8876V76.2588Z" fill="#99E6FC"/>
<path d="M40.4967 78.1522C40.4967 82.3536 37.3266 85.7597 33.4162 85.7597H32.5842C28.6738 85.7597 25.5037 82.3536 25.5037 78.1522V66.4818H40.4967V78.1522Z" fill="#FFDFCF"/>
<path d="M53.6044 40.1123L54.294 38.3757V32.2341C54.294 31.5264 53.881 30.8954 53.2628 30.6513C50.2721 29.4706 47.2802 28.5546 44.2882 27.8977C43.693 27.7662 43.1995 27.325 42.9659 26.7219L41.4082 22.7087C41.0691 21.8344 39.9182 21.8182 39.5603 22.6864L38.351 25.6108C38.0365 26.3677 37.3169 26.8332 36.5484 26.7806C28.6031 26.2317 20.6544 27.5195 12.7055 30.6513C12.086 30.8954 11.6714 31.5262 11.6714 32.2351V51.7827C11.6714 56.4314 12.7865 60.8311 14.7605 64.6682L18.6427 70.3106C22.3421 74.4249 27.281 77.2805 32.8885 78.1629L33.0468 78.1386C38.6844 77.2582 43.6478 74.3845 47.3585 70.2397L50.9337 65.1499C53.0772 61.1954 54.294 56.6095 54.294 51.7544V43.5414L53.8051 43.3905L53.6044 40.1123Z" fill="#FFDFCF"/>
<path d="M52.8826 48.6099C52.2406 46.5333 50.6766 44.9713 48.696 44.4301C43.5013 43.0177 38.2102 42.3017 32.9696 42.3017C30.0268 42.3017 27.0554 42.529 24.0819 42.9779C21.7545 43.3292 19.6739 41.3957 19.6739 38.8706V28.874C19.6739 28.6972 19.6997 28.5253 19.7481 28.363C17.3994 28.9667 15.0507 29.7269 12.702 30.6526C12.0836 30.8962 11.6709 31.5274 11.6709 32.2352V51.7828C11.6709 56.4314 12.786 60.8312 14.76 64.6683L18.6422 70.3106C22.3416 74.425 27.2805 77.2805 32.8881 78.1629L33.0463 78.1386C36.3051 77.6296 39.3402 76.4548 42.0368 74.7532C42.0393 74.7528 42.1421 74.6854 42.1421 74.6854C44.0694 73.4558 45.8199 71.9578 47.3581 70.2398L50.9332 65.1499C52.681 61.9254 53.8121 58.281 54.1704 54.4133C53.9097 52.485 53.4804 50.5493 52.8826 48.6099V48.6099Z" fill="#FFCEBF"/>
<path d="M50.2009 49.5663C52.1165 55.7793 52.1561 61.9236 50.1896 67.999C49.8618 69.017 49.0914 69.8063 48.1308 70.1119C37.978 73.358 27.8253 73.36 17.6726 70.1179C16.7025 69.8083 15.9321 69.0089 15.6062 67.9828C13.6567 61.8406 13.6473 55.6984 15.578 49.5582C15.917 48.4775 16.7515 47.6579 17.7799 47.3826C27.895 44.6687 37.9686 44.6444 48.0027 47.3725C49.033 47.6538 49.8656 48.4815 50.2009 49.5663V49.5663Z" fill="#B0E7C9"/>
<path d="M23.846 70.0014C21.8965 62.6042 21.887 55.2073 23.8178 47.8125C24.0157 47.053 24.3851 46.3995 24.8607 45.9219C22.5034 46.2615 20.1421 46.7488 17.7802 47.3825C16.7517 47.6577 15.9173 48.4773 15.5782 49.558C13.6475 55.6982 13.6569 61.8404 15.6065 67.9827C15.9323 69.0087 16.7027 69.8081 17.6728 70.1178C20.0716 70.8838 22.474 71.4695 24.8728 71.8732C24.4056 71.396 24.0427 70.7476 23.846 70.0014Z" fill="#91DEB6"/>
<path d="M12.0025 83.8659L6.73792 86.7589V31.1202C6.73792 25.7918 8.13368 20.6058 10.7745 16.1231C11.1918 15.4148 10.9957 14.4771 10.3364 14.0289C9.67713 13.5806 8.80444 13.7911 8.38703 14.4996C5.45969 19.4686 3.91248 25.216 3.91248 31.1202V88.7402C1.45096 91.0619 0 94.4236 0 98.0564V101.976C0 102.814 0.632521 103.494 1.41272 103.494C2.19292 103.494 2.82544 102.814 2.82544 101.976V98.0564C2.82544 94.5176 4.64728 91.3177 7.57971 89.7062L13.289 86.5689C13.9837 86.187 14.2587 85.2727 13.9034 84.5263C13.5482 83.7799 12.6968 83.4848 12.0025 83.8659V83.8659Z" fill="black"/>
<path d="M61.8418 88.5152V78.3248C61.8418 77.4864 61.2095 76.807 60.4291 76.807C59.6487 76.807 59.0164 77.4864 59.0164 78.3248V86.6236L41.9093 77.2229V76.5819C44.1711 75.2736 46.2533 73.5991 48.1056 71.588C48.2462 71.5443 48.3869 71.5024 48.5274 71.4575C49.9224 71.0117 51.0407 69.8638 51.5186 68.387C51.8049 67.5022 52.0496 66.6129 52.2558 65.7198C54.5126 61.4761 55.707 56.6526 55.707 51.7526V31.0679C55.707 30.4405 55.3478 29.8779 54.8031 29.6518C51.4187 28.2479 47.9764 27.1571 44.5718 26.4095C44.4365 26.3797 44.3233 26.2783 44.2689 26.1377L42.7126 22.1249C42.3404 21.1656 41.4753 20.5379 40.5078 20.5259C39.5502 20.5146 38.6617 21.1197 38.269 22.0693L37.0593 24.9938C36.9868 25.1683 36.819 25.276 36.6381 25.2648C28.1795 24.6795 19.6086 26.1559 11.1625 29.6516C10.6172 29.8773 10.2576 30.4403 10.2576 31.0681V51.7822C10.2576 56.4644 11.354 61.0997 13.4262 65.2046C13.6511 66.259 13.9291 67.3118 14.2623 68.3621C14.7357 69.8544 15.8574 71.0135 17.2635 71.4628C17.4769 71.531 17.6907 71.5955 17.9041 71.6609C19.7548 73.6604 21.8338 75.3244 24.0909 76.6255V77.2235L17.3984 80.9011C16.7037 81.283 16.4287 82.1974 16.784 82.9437C17.0339 83.4689 17.5293 83.7709 18.0428 83.7709C18.2592 83.7709 18.479 83.717 18.6849 83.6041L24.3718 80.4792C25.3318 84.3871 28.6493 87.2775 32.5842 87.2775H33.4162C37.3509 87.2775 40.6685 84.3871 41.6286 80.4792L58.4204 89.7066C61.3528 91.318 63.1746 94.5174 63.1746 98.0566V101.976C63.1746 102.815 63.807 103.494 64.5874 103.494C65.3677 103.494 66.0001 102.815 66.0001 101.976V98.0566C65.9999 94.3041 64.4519 90.8416 61.8418 88.5152V88.5152ZM13.083 51.7818V45.5677L14.7069 47.8995C14.5121 48.2278 14.3516 48.5834 14.2324 48.9624C13.7553 50.4815 13.3927 52.0056 13.142 53.5324C13.1039 52.9505 13.083 52.3667 13.083 51.7818V51.7818ZM52.7486 54.4066C52.4986 52.6036 52.095 50.7932 51.5355 48.9792C51.4353 48.654 51.3038 48.3466 51.1475 48.0578L52.8814 45.5681V51.7528C52.8816 52.6415 52.8356 53.5271 52.7486 54.4066ZM48.8536 49.9336C49.0271 50.4965 49.184 51.0589 49.3245 51.6207C38.4686 50.8603 27.4223 50.8638 16.43 51.6296C16.5726 51.0635 16.7322 50.4979 16.9094 49.9332C17.0925 49.3506 17.5551 48.895 18.1166 48.7443C23.0623 47.4177 28.0215 46.7547 32.9617 46.7547C37.8885 46.7547 42.7963 47.4146 47.649 48.7341C48.2111 48.8871 48.6726 49.3467 48.8536 49.9336V49.9336ZM15.8263 54.7136C27.2228 53.8813 38.6839 53.8784 49.9307 54.7053C50.323 57.4456 50.3193 60.1643 49.9192 62.845C38.6176 63.8169 27.1769 63.8177 15.8751 62.8471C15.4633 60.1388 15.447 57.4223 15.8263 54.7136ZM36.4565 28.294C37.8082 28.3847 39.0902 27.5574 39.641 26.2267L40.4675 24.2286L41.6606 27.305C42.0754 28.3748 42.952 29.1519 44.0057 29.3834C46.9549 30.0313 49.9361 30.9497 52.8816 32.1174V40.5012L49.0231 46.0411C48.8045 45.9405 48.5777 45.8555 48.3422 45.7914C38.1674 43.024 27.7676 43.0266 17.4323 45.799C17.2496 45.848 17.0716 45.9089 16.8989 45.9802L13.083 40.501V32.1178C20.8507 29.0451 28.7086 27.7573 36.4565 28.294V28.294ZM16.5197 65.9443C21.956 66.3879 27.4206 66.615 32.8876 66.615C38.3605 66.615 43.8338 66.3871 49.2761 65.9425C49.1469 66.4266 49.0056 66.9092 48.8499 67.3901C48.6696 67.9468 48.248 68.3797 47.7218 68.5479C37.8836 71.6927 27.9068 71.6941 18.0686 68.5525C17.5385 68.3832 17.1153 67.9456 16.9367 67.3824C16.7847 66.9036 16.6466 66.4241 16.5197 65.9443V65.9443ZM32.888 73.9455C35.8596 73.9455 38.8312 73.6764 41.7961 73.1401C39.1094 74.934 36.1022 76.1197 32.8918 76.6279C29.7548 76.1051 26.8144 74.9317 24.181 73.1761C27.0793 73.6885 29.9837 73.9455 32.888 73.9455ZM33.416 84.2412H32.584C29.4587 84.2412 26.9162 81.5095 26.9162 78.1516V78.0249C28.7544 78.795 30.6829 79.3493 32.6831 79.6642C32.7509 79.6749 33.2482 79.6399 33.2482 79.6399C35.2727 79.324 37.2254 78.768 39.0834 77.9867V78.1516C39.0838 81.5095 36.5413 84.2412 33.416 84.2412V84.2412Z" fill="black"/>
<path d="M14.3622 11.2964C19.3031 5.96938 25.8784 3.03569 32.8772 3.03569C47.2904 3.03569 59.0163 15.6342 59.0163 31.1201V71.8566C59.0163 72.6951 59.6487 73.3745 60.429 73.3745C61.2094 73.3745 61.8418 72.6951 61.8418 71.8566V31.1201C61.8418 13.9603 48.8483 0 32.8772 0C25.122 0 17.8357 3.25082 12.3608 9.15362C11.81 9.7474 11.8115 10.7085 12.3644 11.3001C12.9168 11.8922 13.8112 11.8904 14.3622 11.2964V11.2964Z" fill="black"/>
</g>
</svg>
